<svg xmlns="http://www.w3.org/2000/svg" viewBox="0 0 512 512"><circle cx="256" cy="256" r="256" fill="#0f172a"/><g fill="none" stroke="#38bdf8" stroke-width="14" stroke-linecap="round" stroke-linejoin="round" opacity=".8"><path d="m256 56 173 100v200L256 456 83 356V156z"/><path d="m256 136 103 60v120l-103 60-103-60V196zm0 120V56m0 200 173-100M256 256l173 100M256 256v200m0-200L83 356m173-100L83 156"/></g><g fill="#fff"><circle cx="256" cy="56" r="18"/><circle cx="429" cy="156" r="18"/><circle cx="429" cy="356" r="18"/><circle cx="256" cy="456" r="18"/><circle cx="83" cy="356" r="18"/><circle cx="83" cy="156" r="18"/><circle cx="256" cy="136" r="14" opacity=".9"/><circle cx="359" cy="196" r="14" opacity=".9"/><circle cx="359" cy="316" r="14" opacity=".9"/><circle cx="256" cy="376" r="14" opacity=".9"/><circle cx="153" cy="316" r="14" opacity=".9"/><circle cx="153" cy="196" r="14" opacity=".9"/></g><circle cx="256" cy="256" r="32" fill="#38bdf8" stroke="#fff" stroke-width="8"/></svg>