<svg xmlns="http://www.w3.org/2000/svg" viewBox="0 0 512 512" width="100%" height="100%">
  <circle cx="256" cy="256" r="256" fill="#0F172A"/>

  <g fill="none" stroke="#38BDF8" stroke-width="14" stroke-linecap="round" stroke-linejoin="round" opacity="0.8">
    <polygon points="256 56, 429 156, 429 356, 256 456, 83 356, 83 156" />
    <polygon points="256 136, 359 196, 359 316, 256 376, 153 316, 153 196" />
    
    <line x1="256" y1="256" x2="256" y2="56" />
    <line x1="256" y1="256" x2="429" y2="156" />
    <line x1="256" y1="256" x2="429" y2="356" />
    <line x1="256" y1="256" x2="256" y2="456" />
    <line x1="256" y1="256" x2="83" y2="356" />
    <line x1="256" y1="256" x2="83" y2="156" />
  </g>

  <g fill="#FFFFFF">
    <circle cx="256" cy="56" r="18" />
    <circle cx="429" cy="156" r="18" />
    <circle cx="429" cy="356" r="18" />
    <circle cx="256" cy="456" r="18" />
    <circle cx="83" cy="356" r="18" />
    <circle cx="83" cy="156" r="18" />
    
    <circle cx="256" cy="136" r="14" opacity="0.9" />
    <circle cx="359" cy="196" r="14" opacity="0.9" />
    <circle cx="359" cy="316" r="14" opacity="0.9" />
    <circle cx="256" cy="376" r="14" opacity="0.9" />
    <circle cx="153" cy="316" r="14" opacity="0.9" />
    <circle cx="153" cy="196" r="14" opacity="0.9" />
  </g>

  <circle cx="256" cy="256" r="32" fill="#38BDF8" stroke="#FFFFFF" stroke-width="8"/>
</svg>